<svg width="24px" height="24px" viewBox="0 0 24 24" xmlns="http://www.w3.org/2000/svg" class="icon"><path d="M19.5 7.313H16.313v-0.375c0 -2.381 -1.931 -4.313 -4.313 -4.313s-4.313 1.931 -4.313 4.313v0.375H4.5c-0.415 0 -0.75 0.335 -0.75 0.75v12.563c0 0.415 0.335 0.75 0.75 0.75h15c0.415 0 0.75 -0.335 0.75 -0.75V8.063c0 -0.415 -0.335 -0.75 -0.75 -0.75m-10.125 -0.375c0 -1.451 1.174 -2.625 2.625 -2.625s2.625 1.174 2.625 2.625v0.375H9.375zm9.188 12.75H5.438V9h2.25v2.063c0 0.103 0.084 0.188 0.188 0.188h1.313c0.103 0 0.188 -0.084 0.188 -0.188v-2.063h5.25v2.063c0 0.103 0.084 0.188 0.188 0.188h1.313c0.103 0 0.188 -0.084 0.188 -0.188v-2.063h2.25z"/></svg>