<svg width="24px" height="24px" viewBox="0 0 24 24" xmlns="http://www.w3.org/2000/svg" class="icon"><path d="M12 1.5C6.202 1.5 1.5 6.202 1.5 12s4.702 10.5 10.5 10.5 10.5 -4.702 10.5 -10.5S17.798 1.5 12 1.5m0 19.219c-4.814 0 -8.719 -3.905 -8.719 -8.719s3.905 -8.719 8.719 -8.719 8.719 3.905 8.719 8.719 -3.905 8.719 -8.719 8.719m1.118 -9.262 -0.595 -0.138V8.17c0.891 0.122 1.441 0.68 1.535 1.364 0.012 0.094 0.091 0.162 0.185 0.162h1.052c0.11 0 0.197 -0.096 0.188 -0.206 -0.143 -1.46 -1.345 -2.398 -2.951 -2.559V6.164c0 -0.103 -0.084 -0.188 -0.188 -0.188h-0.659c-0.103 0 -0.188 0.084 -0.188 0.188v0.773c-1.659 0.162 -2.958 1.078 -2.958 2.789 0 1.584 1.167 2.348 2.393 2.641l0.579 0.148v3.345c-1.036 -0.138 -1.617 -0.691 -1.737 -1.437 -0.014 -0.089 -0.094 -0.155 -0.185 -0.155H8.508c-0.11 0 -0.197 0.094 -0.188 0.204 0.105 1.289 1.083 2.475 3.169 2.627V17.836c0 0.103 0.084 0.188 0.188 0.188h0.666c0.103 0 0.188 -0.084 0.188 -0.19l-0.005 -0.743c1.835 -0.162 3.148 -1.144 3.148 -2.906 -0.002 -1.627 -1.036 -2.353 -2.555 -2.728m-1.608 -0.38c-0.131 -0.038 -0.241 -0.073 -0.352 -0.117 -0.792 -0.286 -1.16 -0.748 -1.16 -1.343 0 -0.851 0.645 -1.336 1.512 -1.446zM12.523 15.867V12.734c0.073 0.021 0.138 0.038 0.206 0.052 1.109 0.338 1.481 0.806 1.481 1.526 0 0.916 -0.689 1.467 -1.688 1.556"/></svg>