<svg width="24px" height="24px" viewBox="0 0 24 24" xmlns="http://www.w3.org/2000/svg" class="icon"><path d="M5.887 9.07H7.5v1.612c0 0.042 0.042 0.075 0.094 0.075h1.125c0.052 0 0.094 -0.033 0.094 -0.077V9.07h1.612c0.042 0 0.075 -0.042 0.075 -0.094v-1.125c0 -0.052 -0.033 -0.094 -0.077 -0.094H8.813v-1.612c0 -0.042 -0.042 -0.075 -0.094 -0.075h-1.125c-0.052 0 -0.094 0.033 -0.094 0.075V7.758h-1.612c-0.042 0 -0.075 0.042 -0.075 0.094v1.125c0 0.052 0.033 0.094 0.075 0.094m7.688 0h4.537c0.042 0 0.075 -0.042 0.075 -0.094v-1.125c0 -0.052 -0.033 -0.094 -0.077 -0.094H13.575c-0.042 0 -0.075 0.042 -0.075 0.094v1.125c0 0.052 0.033 0.094 0.075 0.094m0 6.211h4.537c0.042 0 0.075 -0.042 0.075 -0.094v-1.125c0 -0.052 -0.033 -0.094 -0.077 -0.094H13.575c-0.042 0 -0.075 0.042 -0.075 0.094v1.125c0 0.052 0.033 0.094 0.075 0.094m0 2.438h4.537c0.042 0 0.075 -0.042 0.075 -0.094v-1.125c0 -0.052 -0.033 -0.094 -0.077 -0.094H13.575c-0.042 0 -0.075 0.042 -0.075 0.094v1.125c0 0.052 0.033 0.094 0.075 0.094m-4.587 -1.898 1.434 -1.755c0.101 -0.122 0.016 -0.307 -0.138 -0.307H9.094c-0.054 0 -0.105 0.023 -0.138 0.068l-0.797 0.975 -0.797 -0.975a0.184 0.184 0 0 0 -0.138 -0.068h-1.193c-0.155 0 -0.239 0.185 -0.138 0.307l1.434 1.755 -1.47 1.8c-0.103 0.122 -0.019 0.307 0.136 0.307h1.191c0.054 0 0.105 -0.023 0.138 -0.068l0.832 -1.02 0.832 1.02c0.035 0.042 0.087 0.068 0.138 0.068h1.191c0.155 0 0.239 -0.185 0.138 -0.307zM20.625 2.625H3.375c-0.415 0 -0.75 0.335 -0.75 0.75v17.25c0 0.415 0.335 0.75 0.75 0.75h17.25c0.415 0 0.75 -0.335 0.75 -0.75V3.375c0 -0.415 -0.335 -0.75 -0.75 -0.75m-0.844 17.156H4.219V4.219h15.563z"/></svg>