<svg width="24px" height="24px" viewBox="0 0 24 24" xmlns="http://www.w3.org/2000/svg" class="icon"><path d="M20.344 17.156h-1.648c-0.112 0 -0.218 0.049 -0.288 0.136 -0.164 0.199 -0.34 0.391 -0.525 0.574a8.292 8.292 0 0 1 -2.641 1.779A8.269 8.269 0 0 1 12.009 20.297c-1.123 0 -2.21 -0.22 -3.232 -0.652a8.292 8.292 0 0 1 -2.641 -1.779 8.28 8.28 0 0 1 -1.781 -2.637C3.921 14.208 3.703 13.123 3.703 12s0.22 -2.208 0.652 -3.23c0.417 -0.987 1.017 -1.875 1.781 -2.637s1.652 -1.362 2.641 -1.779c1.022 -0.431 2.109 -0.652 3.232 -0.652s2.21 0.218 3.232 0.652c0.989 0.417 1.877 1.017 2.641 1.779 0.185 0.185 0.359 0.377 0.525 0.574 0.07 0.087 0.178 0.136 0.288 0.136H20.344c0.148 0 0.239 -0.164 0.157 -0.288C18.703 3.762 15.558 1.912 11.984 1.922 6.368 1.936 1.866 6.495 1.922 12.103 1.978 17.623 6.473 22.078 12.009 22.078c3.565 0 6.696 -1.847 8.491 -4.634 0.08 -0.124 -0.009 -0.288 -0.157 -0.288m2.084 -5.304L19.102 9.227c-0.124 -0.098 -0.305 -0.009 -0.305 0.148v1.781H11.438c-0.103 0 -0.188 0.084 -0.188 0.188v1.313c0 0.103 0.084 0.188 0.188 0.188h7.359v1.781c0 0.157 0.183 0.246 0.305 0.148l3.326 -2.625a0.188 0.188 0 0 0 0 -0.295"/></svg>